<svg width="60" height="60" viewBox="0 0 60 60" fill="none" xmlns="http://www.w3.org/2000/svg">
<path d="M59.1667 47.5V59.1667H47.5V50.4167H38.75V41.6667H30L23.4083 35.075C21.8042 35.5709 20.1125 35.8334 18.3333 35.8334C13.6921 35.8334 9.24086 33.9896 5.95897 30.7077C2.67709 27.4259 0.833344 22.9747 0.833344 18.3334C0.833344 13.6921 2.67709 9.24089 5.95897 5.95901C9.24086 2.67712 13.6921 0.833374 18.3333 0.833374C22.9746 0.833374 27.4258 2.67712 30.7077 5.95901C33.9896 9.24089 35.8333 13.6921 35.8333 18.3334C35.8333 20.1125 35.5708 21.8042 35.075 23.4084L59.1667 47.5ZM15.4167 9.58337C13.8696 9.58337 12.3858 10.198 11.2919 11.2919C10.1979 12.3859 9.58334 13.8696 9.58334 15.4167C9.58334 16.9638 10.1979 18.4475 11.2919 19.5415C12.3858 20.6355 13.8696 21.25 15.4167 21.25C16.9638 21.25 18.4475 20.6355 19.5415 19.5415C20.6354 18.4475 21.25 16.9638 21.25 15.4167C21.25 13.8696 20.6354 12.3859 19.5415 11.2919C18.4475 10.198 16.9638 9.58337 15.4167 9.58337Z" fill="#242A33"/>
</svg>
