<svg width="60" height="60" viewBox="0 0 60 60" fill="none" xmlns="http://www.w3.org/2000/svg">
<path d="M28.3375 23.2041C28.4542 23.525 28.5417 23.8166 28.5417 24.1666V39.3916C28.5417 40.85 27.9875 42.25 26.9958 43.3291L18.8583 52.225L8.94166 42.3083L12.5 38.75L20.6667 3.34164C20.8447 2.56261 21.3036 1.8765 21.9556 1.41447C22.6076 0.952446 23.407 0.746902 24.201 0.837131C24.995 0.927359 25.728 1.30703 26.2597 1.90357C26.7914 2.50012 27.0846 3.27169 27.0833 4.07081V18.5375C26.6073 18.4105 26.1176 18.3419 25.625 18.3333C22.4167 18.3333 19.7917 20.9583 19.7917 24.1666V32.9166C19.7917 33.7333 20.4333 34.375 21.25 34.375C22.0667 34.375 22.7083 33.7333 22.7083 32.9166V24.1666C22.7083 22.5625 24.0208 21.25 25.625 21.25C26.1792 21.25 26.6458 21.4541 27.0833 21.7166C27.4333 21.9208 27.6958 22.1833 27.9583 22.475C28.0458 22.5916 28.1333 22.7083 28.1917 22.8541C28.25 22.9708 28.3083 23.0875 28.3375 23.2041ZM0.833328 50.4166L12.5 59.1666L15.9125 55.4625L5.85 45.4L0.833328 50.4166ZM47.5 38.75L39.3333 3.34164C39.1553 2.56261 38.6964 1.8765 38.0444 1.41447C37.3924 0.952446 36.593 0.746902 35.799 0.837131C35.005 0.927359 34.272 1.30703 33.7403 1.90357C33.2086 2.50012 32.9154 3.27169 32.9167 4.07081V18.5375C33.3833 18.4208 33.8792 18.3333 34.375 18.3333C37.5833 18.3333 40.2083 20.9583 40.2083 24.1666V32.9166C40.2083 33.7333 39.5667 34.375 38.75 34.375C37.9333 34.375 37.2917 33.7333 37.2917 32.9166V24.1666C37.2917 22.5625 35.9792 21.25 34.375 21.25C33.8208 21.25 33.3542 21.4541 32.9167 21.7166C32.5667 21.9208 32.3042 22.1833 32.0708 22.475C31.9833 22.5916 31.8667 22.7083 31.8083 22.8541C31.75 22.9708 31.6917 23.0875 31.6625 23.2041C31.5458 23.525 31.4583 23.8166 31.4583 24.1666V39.3916C31.4583 40.85 32.0125 42.25 33.0042 43.3291L41.1417 52.225L51.0583 42.3083L47.5 38.75ZM54.15 45.4L44.0875 55.4625L47.5 59.1666L59.1667 50.4166L54.15 45.4Z" fill="#242A33"/>
</svg>
