<svg width="48" height="57" viewBox="0 0 48 57" fill="none" xmlns="http://www.w3.org/2000/svg">
<path d="M24 38.75C11.1083 38.75 0.666664 43.9709 0.666664 50.4167V56.25H47.3333V50.4167C47.3333 43.9709 36.8917 38.75 24 38.75ZM12.3333 21.25C12.3333 24.3442 13.5625 27.3117 15.7504 29.4996C17.9383 31.6875 20.9058 32.9167 24 32.9167C27.0942 32.9167 30.0617 31.6875 32.2496 29.4996C34.4375 27.3117 35.6667 24.3442 35.6667 21.25H12.3333ZM22.5417 0.833374C21.6667 0.833374 21.0833 1.44587 21.0833 2.29171V11.0417H18.1667V3.75004C18.1667 3.75004 11.6042 6.25837 11.6042 14.6875C11.6042 14.6875 9.41666 15.0959 9.41666 18.3334H38.5833C38.4375 15.0959 36.3958 14.6875 36.3958 14.6875C36.3958 6.25837 29.8333 3.75004 29.8333 3.75004V11.0417H26.9167V2.29171C26.9167 1.44587 26.3625 0.833374 25.4583 0.833374H22.5417Z" fill="#242A33"/>
</svg>
