<svg width="41" height="51" viewBox="0 0 41 51" fill="none" xmlns="http://www.w3.org/2000/svg">
<path d="M17.865 0.189198C15.7484 0.57567 13.8838 1.33573 12.2082 2.46938C4.64885 7.62234 3.22518 18.1601 9.12144 25.2326C12.1704 28.8783 17.1595 30.9137 21.7707 30.4113C25.4244 29.9991 28.4229 28.5433 30.9553 25.9411C34.9365 21.8574 36.3224 15.8284 34.5459 10.3921C32.7695 4.96856 28.0071 0.89773 22.5266 0.124786C21.2037 -0.0684509 19.0745 -0.0298023 17.865 0.189198ZM23.4967 2.48226C28.9016 3.88645 32.7947 8.62716 33.223 14.3469C33.4246 17.0523 32.6435 20.0538 31.1442 22.3984C29.141 25.5031 25.9661 27.6158 22.4132 28.1955C20.9392 28.4403 18.3816 28.2986 16.9705 27.8863C13.3043 26.83 10.3435 24.2535 8.71828 20.698C7.94975 18.9975 7.68517 17.851 7.62218 15.6996C7.54658 13.5482 7.77336 12.0925 8.4537 10.3792C10.1671 5.98627 14.1106 2.83009 18.6966 2.17309C19.9691 1.99273 22.1361 2.13444 23.4967 2.48226Z" fill="black"/>
<path d="M7.60972 35.036C5.74508 35.3581 4.06943 36.2728 2.67096 37.7158C1.57486 38.8624 0.907119 39.9575 0.44096 41.4005C0.11339 42.4054 0.100791 42.5214 0.0503955 46.1288L0 49.8263L0.327571 50.1613L0.642542 50.4834H20.3472H40.0518L40.392 50.2128L40.7195 49.9552V46.438C40.7195 42.3925 40.6188 41.7226 39.699 39.8802C38.9305 38.36 37.2927 36.698 35.806 35.9507C33.6894 34.8943 34.7603 34.9716 20.7503 34.9458C13.8966 34.9329 7.97508 34.9716 7.60972 35.036ZM33.5382 37.2649C34.8485 37.7029 35.7178 38.2569 36.6249 39.1974C38.3258 40.9496 38.7037 42.1864 38.7037 45.9355V48.422H20.3724H2.04102V46.0643C2.04102 43.333 2.2048 42.3539 2.87254 40.9753C3.66627 39.3262 5.44271 37.7931 7.08056 37.3293C8.23966 37.0072 9.41136 36.9814 21.0023 37.0072C32.1019 37.033 32.883 37.0458 33.5382 37.2649Z" fill="black"/>
</svg>
