<svg width="58" height="42" viewBox="0 0 58 42" fill="none" xmlns="http://www.w3.org/2000/svg">
<path d="M4.26279 0.634243C2.17383 1.20567 0.550558 3.02881 0.151393 5.2329C-0.0481894 6.32134 -0.0481894 35.5731 0.138088 36.6208C0.590475 39.0698 2.54638 41.0017 4.92807 41.3827C5.4869 41.4643 14.2818 41.5051 29.6098 41.4779L53.4266 41.4371L54.1717 41.1242C55.795 40.4575 56.9792 39.2466 57.6578 37.5596L57.9505 36.8112L57.9904 21.5051C58.017 10.9608 57.9904 5.92678 57.884 5.34174C57.6844 4.11725 57.1389 3.05602 56.2873 2.17166C55.4491 1.31451 54.7971 0.919956 53.6661 0.620636C52.5218 0.321316 5.38045 0.334919 4.26279 0.634243ZM53.2137 2.79752C53.3069 2.89275 49.4084 6.4846 41.292 13.818C34.6526 19.8044 29.1574 24.716 29.0642 24.7432C28.9046 24.784 4.90146 3.21928 4.78171 2.93357C4.7551 2.86554 4.91476 2.7567 5.12765 2.71588C5.81954 2.56622 53.0674 2.64785 53.2137 2.79752ZM11.022 11.6275C14.987 15.2193 18.2203 18.2261 18.207 18.3078C18.1803 18.3894 14.6411 22.5799 10.3168 27.6003C5.14096 33.6412 2.43994 36.6752 2.37341 36.5663C2.32019 36.4847 2.26697 29.4235 2.26697 20.8928C2.26697 5.72269 2.28027 5.36895 2.53308 4.78392L2.79919 4.19888L3.3048 4.64786C3.57091 4.90636 7.04364 8.04924 11.022 11.6275ZM55.622 5.17847C55.795 5.80433 55.8083 36.4303 55.6353 36.5255C55.5023 36.6208 39.855 18.471 39.855 18.2397C39.855 18.1581 43.3011 14.988 47.5057 11.1785C55.8216 3.65466 55.316 4.03561 55.622 5.17847ZM24.6601 23.9405C26.6959 25.7772 28.5054 27.3418 28.6917 27.4099C28.8913 27.4915 29.1308 27.4915 29.3437 27.4099C29.5299 27.3418 31.5391 25.6003 33.8143 23.5459C36.1029 21.4915 38.0188 19.8044 38.0721 19.8044C38.1386 19.8044 41.8109 24.0221 46.2283 29.1786C54.9967 39.3963 54.4644 38.6616 53.3734 39.0289C52.7347 39.2602 5.30062 39.2602 4.64865 39.0425C3.62413 38.6888 3.21166 39.2602 11.9135 29.1377L19.9766 19.7227L20.4689 20.1581C20.735 20.403 22.6244 22.1037 24.6601 23.9405Z" fill="black"/>
</svg>
